<mxfile host="app.diagrams.net" modified="2023-10-03T21:49:16.618Z" agent="Mozilla/5.0 (Windows NT 10.0; Win64; x64) AppleWebKit/537.36 (KHTML, like Gecko) Chrome/117.0.0.0 Safari/537.36" etag="rFRzeTGSQrBoInigZcaU" version="22.0.2" type="github">
  <diagram name="Page-1" id="dFOQ9Cw2s2FOwbDXWVRe">
    <mxGraphModel dx="880" dy="484" grid="1" gridSize="10" guides="1" tooltips="1" connect="1" arrows="1" fold="1" page="1" pageScale="1" pageWidth="850" pageHeight="1100" math="0" shadow="0">
      <root>
        <mxCell id="0" />
        <mxCell id="1" parent="0" />
        <mxCell id="qDxceSk05uXn3ClY6-Vg-1" value="&lt;font style=&quot;font-size: 10px;&quot;&gt;&amp;lt;&amp;lt;interface&amp;gt;&amp;gt;&lt;/font&gt;&lt;br&gt;&lt;b&gt;Reprodutor Musical&lt;/b&gt;" style="rounded=0;whiteSpace=wrap;html=1;" vertex="1" parent="1">
          <mxGeometry x="60" y="80" width="140" height="60" as="geometry" />
        </mxCell>
        <mxCell id="qDxceSk05uXn3ClY6-Vg-2" value="&lt;font style=&quot;font-size: 10px;&quot;&gt;&amp;lt;&amp;lt;interface&amp;gt;&amp;gt;&lt;/font&gt;&lt;b&gt;&lt;br&gt;Aparelho TelefÃ´nico&lt;/b&gt;" style="rounded=0;whiteSpace=wrap;html=1;" vertex="1" parent="1">
          <mxGeometry x="320" y="80" width="140" height="60" as="geometry" />
        </mxCell>
        <mxCell id="qDxceSk05uXn3ClY6-Vg-3" value="&lt;font style=&quot;font-size: 10px;&quot;&gt;&amp;lt;&amp;lt;interface&amp;gt;&amp;gt;&lt;/font&gt;&lt;b&gt;&lt;br&gt;Navegador de Internet&lt;/b&gt;" style="rounded=0;whiteSpace=wrap;html=1;" vertex="1" parent="1">
          <mxGeometry x="560" y="80" width="140" height="60" as="geometry" />
        </mxCell>
        <mxCell id="qDxceSk05uXn3ClY6-Vg-18" value="" style="edgeStyle=orthogonalEdgeStyle;rounded=0;orthogonalLoop=1;jettySize=auto;html=1;entryX=0.5;entryY=1;entryDx=0;entryDy=0;" edge="1" parent="1" source="qDxceSk05uXn3ClY6-Vg-4" target="qDxceSk05uXn3ClY6-Vg-13">
          <mxGeometry relative="1" as="geometry">
            <mxPoint x="225" y="325" as="targetPoint" />
          </mxGeometry>
        </mxCell>
        <mxCell id="qDxceSk05uXn3ClY6-Vg-20" style="edgeStyle=orthogonalEdgeStyle;rounded=0;orthogonalLoop=1;jettySize=auto;html=1;entryX=0.5;entryY=1;entryDx=0;entryDy=0;" edge="1" parent="1" source="qDxceSk05uXn3ClY6-Vg-4" target="qDxceSk05uXn3ClY6-Vg-14">
          <mxGeometry relative="1" as="geometry" />
        </mxCell>
        <mxCell id="qDxceSk05uXn3ClY6-Vg-21" style="edgeStyle=orthogonalEdgeStyle;rounded=0;orthogonalLoop=1;jettySize=auto;html=1;" edge="1" parent="1" source="qDxceSk05uXn3ClY6-Vg-4">
          <mxGeometry relative="1" as="geometry">
            <mxPoint x="640" y="190" as="targetPoint" />
          </mxGeometry>
        </mxCell>
        <mxCell id="qDxceSk05uXn3ClY6-Vg-4" value="&lt;b&gt;&lt;font style=&quot;font-size: 14px;&quot;&gt;Aparelho Iphone&lt;/font&gt;&lt;/b&gt;" style="rounded=0;whiteSpace=wrap;html=1;" vertex="1" parent="1">
          <mxGeometry x="310" y="290" width="160" height="90" as="geometry" />
        </mxCell>
        <mxCell id="qDxceSk05uXn3ClY6-Vg-13" value="&lt;font style=&quot;font-size: 11px;&quot;&gt;+navegarListaArtistas: void&lt;br&gt;+reproduzirMusica : void&lt;/font&gt;" style="rounded=0;whiteSpace=wrap;html=1;" vertex="1" parent="1">
          <mxGeometry x="60" y="140" width="140" height="60" as="geometry" />
        </mxCell>
        <mxCell id="qDxceSk05uXn3ClY6-Vg-14" value="&lt;font style=&quot;font-size: 11px;&quot;&gt;+ fazerLigacao: void&lt;br&gt;+ receberLigacao : void&lt;/font&gt;" style="rounded=0;whiteSpace=wrap;html=1;" vertex="1" parent="1">
          <mxGeometry x="320" y="140" width="140" height="40" as="geometry" />
        </mxCell>
        <mxCell id="qDxceSk05uXn3ClY6-Vg-16" value="+ navegarInternet: void&lt;br&gt;+ enviarEmail : void" style="rounded=0;whiteSpace=wrap;html=1;" vertex="1" parent="1">
          <mxGeometry x="560" y="140" width="140" height="40" as="geometry" />
        </mxCell>
      </root>
    </mxGraphModel>
  </diagram>
</mxfile>
